<?xml version="1.0" encoding="utf-8"?>
<!-- Generator: Adobe Illustrator 23.0.2, SVG Export Plug-In . SVG Version: 6.00 Build 0)  -->
<svg version="1.1" xmlns="http://www.w3.org/2000/svg" xmlns:xlink="http://www.w3.org/1999/xlink" x="0px" y="0px"
	 viewBox="0 0 500 500" style="enable-background:new 0 0 500 500;" xml:space="preserve">
<style type="text/css">
	.st0{display:none;}
	.st1{fill:url(#SVGID_1_);}
	.st2{fill:url(#SVGID_2_);}
	.st3{fill:url(#SVGID_3_);}
	.st4{fill:url(#SVGID_4_);}
	.st5{opacity:0.81;fill:url(#SVGID_5_);}
	.st6{opacity:0.81;fill:url(#SVGID_6_);}
	.st7{opacity:0.81;fill:url(#SVGID_7_);}
	.st8{fill:url(#SVGID_8_);}
	.st9{fill:url(#SVGID_9_);}
	.st10{fill:url(#SVGID_10_);}
	.st11{fill:url(#SVGID_11_);}
	.st12{display:inline;fill:url(#SVGID_12_);}
	.st13{display:inline;opacity:0.81;fill:url(#SVGID_13_);}
	.st14{display:inline;fill:url(#SVGID_14_);}
	.st15{display:inline;}
	.st16{fill:#777777;}
	.st17{font-family:'Montserrat-Medium';}
	.st18{font-size:12.1779px;}
	.st19{letter-spacing:2;}
	.st20{fill:#F48939;}
	.st21{font-family:'ShareTech-Regular';}
	.st22{font-size:46.6036px;}
	.st23{fill:#4B57A3;}
</style>
<g id="BACKGROUND" class="st0">
	<linearGradient id="SVGID_1_" gradientUnits="userSpaceOnUse" x1="8.1465" y1="8.1465" x2="463.7915" y2="463.7915">
		<stop  offset="0" style="stop-color:#F0F0F0"/>
		<stop  offset="1" style="stop-color:#DEDEDE"/>
	</linearGradient>
	<rect class="st1" width="500" height="500"/>
</g>
<g id="OBJECTS">
	<g>
		<g>
			<g>
				<g>
					<radialGradient id="SVGID_2_" cx="241.8961" cy="191.9978" r="89.4454" gradientUnits="userSpaceOnUse">
						<stop  offset="0" style="stop-color:#FF5900"/>
						<stop  offset="1" style="stop-color:#9E0000"/>
					</radialGradient>
					<path class="st2" d="M310.19,122.87h-30.42l18.04-52.53l-27.08,52.53h-97.12c-19.9,0-32.34,21.55-22.39,38.78l48.69,84.34
						l-25.8,67.67l32.98-55.24l12.42,21.51c9.95,17.24,34.83,17.24,44.78,0l68.29-118.28C342.53,144.41,330.09,122.87,310.19,122.87
						z"/>
					<linearGradient id="SVGID_3_" gradientUnits="userSpaceOnUse" x1="294.4915" y1="200.6566" x2="120.4535" y2="26.6186">
						<stop  offset="0" style="stop-color:#FF5900"/>
						<stop  offset="0.3676" style="stop-color:#B80000"/>
						<stop  offset="0.6007" style="stop-color:#B80000"/>
						<stop  offset="1" style="stop-color:#B80000"/>
					</linearGradient>
					<path class="st3" d="M330.06,132.18c-4.62-5.59-11.6-9.32-19.87-9.32h-30.42l18.04-52.53l-27.08,52.53h-97.12
						c-19.9,0-32.34,21.55-22.39,38.78l40.11,69.47C254.93,229.42,308.82,188.79,330.06,132.18z"/>
					<radialGradient id="SVGID_4_" cx="200.668" cy="55.9719" r="213.3051" gradientUnits="userSpaceOnUse">
						<stop  offset="0" style="stop-color:#B0B0B0"/>
						<stop  offset="0.1046" style="stop-color:#8C8C8C"/>
						<stop  offset="0.2489" style="stop-color:#626262"/>
						<stop  offset="0.396" style="stop-color:#3E3E3E"/>
						<stop  offset="0.5439" style="stop-color:#232323"/>
						<stop  offset="0.693" style="stop-color:#101010"/>
						<stop  offset="0.844" style="stop-color:#040404"/>
						<stop  offset="1" style="stop-color:#000000"/>
					</radialGradient>
					<path class="st4" d="M256.45,274.21l67.53-116.96c6.48-11.23-1.62-25.26-14.58-25.26H174.34c-12.96,0-21.07,14.03-14.58,25.26
						l67.53,116.96C233.77,285.43,249.97,285.43,256.45,274.21z"/>
					
						<radialGradient id="SVGID_5_" cx="196.8425" cy="213.7102" r="18.6906" gradientTransform="matrix(2.5219 -0.9603 0.2569 0.6747 -281.178 222.4753)" gradientUnits="userSpaceOnUse">
						<stop  offset="0" style="stop-color:#B80000"/>
						<stop  offset="0.0558" style="stop-color:#BF1818"/>
						<stop  offset="0.2053" style="stop-color:#D05555"/>
						<stop  offset="0.3541" style="stop-color:#DE8989"/>
						<stop  offset="0.4986" style="stop-color:#EAB3B3"/>
						<stop  offset="0.6381" style="stop-color:#F3D4D4"/>
						<stop  offset="0.7709" style="stop-color:#FAECEC"/>
						<stop  offset="0.8946" style="stop-color:#FEFAFA"/>
						<stop  offset="1" style="stop-color:#FFFFFF"/>
					</radialGradient>
					<path class="st5" d="M317.28,159.69c2.65,6.96-16.3,20.65-42.33,30.56c-26.03,9.91-49.28,12.3-51.94,5.34
						c-2.65-6.96,16.3-20.65,42.33-30.56C291.37,155.11,314.62,152.72,317.28,159.69z"/>
					
						<radialGradient id="SVGID_6_" cx="180.1118" cy="157.2845" r="18.6898" gradientTransform="matrix(1.6555 -2.1311 0.4407 0.3423 -146.8541 500.6137)" gradientUnits="userSpaceOnUse">
						<stop  offset="0" style="stop-color:#B80000"/>
						<stop  offset="1" style="stop-color:#FFFFFF"/>
					</radialGradient>
					<path class="st6" d="M251.58,130.79c4.55,3.53-5.62,24.23-22.7,46.23c-17.09,22-34.63,36.97-39.18,33.43
						c-4.55-3.53,5.62-24.23,22.7-46.23C229.49,142.22,247.03,127.25,251.58,130.79z"/>
					
						<radialGradient id="SVGID_7_" cx="163.6688" cy="361.741" r="18.6903" gradientTransform="matrix(1.4724 -2.2615 0.5797 0.3774 -215.8753 450.7205)" gradientUnits="userSpaceOnUse">
						<stop  offset="0" style="stop-color:#B80000"/>
						<stop  offset="1" style="stop-color:#FFFFFF"/>
					</radialGradient>
					<path class="st7" d="M262.33,174.84c5.98,3.9-1.49,25.98-16.68,49.32c-15.2,23.34-32.37,39.11-38.35,35.21
						c-5.98-3.9,1.49-25.98,16.68-49.32C239.18,186.71,256.35,170.94,262.33,174.84z"/>
				</g>
				<linearGradient id="SVGID_8_" gradientUnits="userSpaceOnUse" x1="193.1376" y1="143.2541" x2="311.4794" y2="277.9815">
					<stop  offset="0" style="stop-color:#FFDE00"/>
					<stop  offset="0.3676" style="stop-color:#FF8500"/>
					<stop  offset="0.6007" style="stop-color:#FF8500"/>
					<stop  offset="1" style="stop-color:#FF8500"/>
				</linearGradient>
				<polygon class="st8" points="297.81,70.34 180.57,213.32 241.56,195.71 174.1,313.66 305.94,159.79 241.56,179.44 				"/>
				<linearGradient id="SVGID_9_" gradientUnits="userSpaceOnUse" x1="252.758" y1="148.9181" x2="103.3528" y2="596.7104">
					<stop  offset="0" style="stop-color:#FFDE00"/>
					<stop  offset="0.3676" style="stop-color:#FF8500"/>
					<stop  offset="0.6007" style="stop-color:#FF8500"/>
					<stop  offset="1" style="stop-color:#FF8500"/>
				</linearGradient>
				<polygon class="st9" points="241.56,195.71 174.1,313.66 263.53,187.62 				"/>
				<linearGradient id="SVGID_10_" gradientUnits="userSpaceOnUse" x1="261.2322" y1="189.9512" x2="261.2322" y2="-30.6952">
					<stop  offset="0" style="stop-color:#FFDE00"/>
					<stop  offset="0.3676" style="stop-color:#FF8500"/>
					<stop  offset="0.6007" style="stop-color:#FF8500"/>
					<stop  offset="1" style="stop-color:#FF8500"/>
				</linearGradient>
				<polygon class="st10" points="241.56,179.44 224.66,184.71 297.81,70.34 				"/>
				<linearGradient id="SVGID_11_" gradientUnits="userSpaceOnUse" x1="231.5014" y1="125.1255" x2="297.8051" y2="125.1255">
					<stop  offset="0" style="stop-color:#F0F0F0"/>
					<stop  offset="1" style="stop-color:#DEDEDE"/>
				</linearGradient>
				<polygon class="st11" points="297.81,70.34 237.54,177.13 231.5,179.92 				"/>
			</g>
			<g class="st0">
				<linearGradient id="SVGID_12_" gradientUnits="userSpaceOnUse" x1="146.8867" y1="251.3266" x2="276.5722" y2="199.1082">
					<stop  offset="0" style="stop-color:#B0B0B0"/>
					<stop  offset="0.1046" style="stop-color:#8C8C8C"/>
					<stop  offset="0.2489" style="stop-color:#626262"/>
					<stop  offset="0.396" style="stop-color:#3E3E3E"/>
					<stop  offset="0.5439" style="stop-color:#232323"/>
					<stop  offset="0.693" style="stop-color:#101010"/>
					<stop  offset="0.844" style="stop-color:#040404"/>
					<stop  offset="1" style="stop-color:#000000"/>
				</linearGradient>
				<path class="st12" d="M334.56,162.14l-30.01,4.84l14.18,15.7c-14.01,12.68-35.85,26.46-61.75,38.04
					c-49.65,22.21-95.38,27.96-102.15,12.83c-3.5-7.83,4.12-19.71,19.16-32.44l-0.22-0.38c-20.94,17.17-31.75,33.94-26.76,45.09
					c8.76,19.57,62.84,14.42,120.81-11.52c25.39-11.36,47.32-24.83,63.2-38.02l13.69,15.15l8.52-39.2l2.95-13.59L334.56,162.14z"/>
				
					<radialGradient id="SVGID_13_" cx="177.3122" cy="282.5072" r="18.6903" gradientTransform="matrix(5.1085 -2.6485 0.4533 0.8743 -757.3936 438.4123)" gradientUnits="userSpaceOnUse">
					<stop  offset="0" style="stop-color:#5E0000"/>
					<stop  offset="0.1221" style="stop-color:#833B3B"/>
					<stop  offset="0.2457" style="stop-color:#A46E6E"/>
					<stop  offset="0.3717" style="stop-color:#C09B9B"/>
					<stop  offset="0.4975" style="stop-color:#D6BFBF"/>
					<stop  offset="0.6232" style="stop-color:#E8DBDB"/>
					<stop  offset="0.7488" style="stop-color:#F5EFEF"/>
					<stop  offset="0.8743" style="stop-color:#FCFBFB"/>
					<stop  offset="1" style="stop-color:#FFFFFF"/>
				</radialGradient>
				<path class="st13" d="M267.99,199.46c-29.18,15.13-54.14,30.91-69.83,43.52l1.74,3.01l-8.31,21.8
					c3.12-0.28,6.84-0.94,11.07-1.96l4.42-7.41l3.11,5.39c19.27-5.65,46.09-16.82,74.74-31.67c3.39-1.76,6.73-3.53,10-5.3
					l30.81-53.36C308.98,179.68,288.98,188.58,267.99,199.46z"/>
				<linearGradient id="SVGID_14_" gradientUnits="userSpaceOnUse" x1="309.5204" y1="82.6671" x2="172.3875" y2="354.6216">
					<stop  offset="0" style="stop-color:#B0B0B0"/>
					<stop  offset="0.1046" style="stop-color:#8C8C8C"/>
					<stop  offset="0.2489" style="stop-color:#626262"/>
					<stop  offset="0.396" style="stop-color:#3E3E3E"/>
					<stop  offset="0.5439" style="stop-color:#232323"/>
					<stop  offset="0.693" style="stop-color:#101010"/>
					<stop  offset="0.844" style="stop-color:#040404"/>
					<stop  offset="1" style="stop-color:#000000"/>
				</linearGradient>
				<path class="st14" d="M157.92,246.68c23.11,16.18,145.39-21.22,198.27-88.03l-21.63,3.49l-30.01,4.84l14.18,15.7
					c-14.01,12.68-35.85,26.46-61.75,38.04c-49.65,22.21-95.38,27.96-102.15,12.83c-3.5-7.83,4.12-19.71,19.16-32.44l-0.22-0.38
					c-2.17,1.78-4.22,3.55-6.16,5.31C157.67,215.34,140.84,234.73,157.92,246.68z"/>
			</g>
		</g>
	</g>
</g>
<g id="TEXT" class="st0">
	<text transform="matrix(1 0 0 1 150.5929 382.3097)" class="st15"><tspan x="0" y="0" class="st16 st17 st18 st19">       </tspan><tspan x="39.98" y="0" class="st20 st17 st18 st19">TUKO AREA..</tspan></text>
	<g class="st15">
		<g>
			<text transform="matrix(1 0 0 1 122.9883 359.1749)" class="st21 st22">NAREE POWER</text>
			<text transform="matrix(1 0 0 1 122.9883 359.1749)" class="st23 st21 st22">NAREE POWER</text>
		</g>
	</g>
</g>
</svg>
